PathFileType	4	(X/Y/Z)	32_2_9_p0_0-287.trc
DataRate	CameraRate	NumFrames	NumMarkers	Units	OrigDataRate	OrigDataStartFrame	OrigNumFrames
59.0	59.0	5	27	m	59.0	252	288
Frame#	Time	RHip			RKnee			RAnkle			RBigToe			RSmallToe			RHeel			LHip			LKnee			LAnkle			LBigToe			LSmallToe			LHeel			Neck			Head			Nose			RShoulder			RElbow			RWrist			RThumb			RIndex			RPinky			LShoulder			LElbow			LWrist			LThumb			LIndex			LPinky			
		X1	Y1	Z1	X2	Y2	Z2	X3	Y3	Z3	X4	Y4	Z4	X5	Y5	Z5	X6	Y6	Z6	X7	Y7	Z7	X8	Y8	Z8	X9	Y9	Z9	X10	Y10	Z10	X11	Y11	Z11	X12	Y12	Z12	X13	Y13	Z13	X14	Y14	Z14	X15	Y15	Z15	X16	Y16	Z16	X17	Y17	Z17	X18	Y18	Z18	X19	Y19	Z19	X20	Y20	Z20	X21	Y21	Z21	X22	Y22	Z22	X23	Y23	Z23	X24	Y24	Z24	X25	Y25	Z25	X26	Y26	Z26	X27	Y27	Z27	
252	4.271186440677966	0.3206310477862083	0.45747381678729987	1.065864295171856	0.3265877961630908	0.4991961776722803	1.495371269901092	0.3265384684806698	0.4920762150375893	1.9074211476140035	0.30168602232553826	0.3275155469919585	1.9147603651841936	0.37717024485073497	0.32935420296370466	1.9065451590224856	0.3050652000949304	0.5670018712417939	2.00752337105786	0.1213056259909918	0.477388920291073	1.0790737852155896	0.1256890566675114	0.5093710662510439	1.4996048647893807	0.14192621481053644	0.5107645952641215	1.9466148464947715	0.1494059770347919	0.31602107073960845	1.9120926676921326	0.09539249952318204	0.3668072367752264	1.9325991552485153	0.15911444109520304	0.5370270383477052	1.985618967003803	0.23661405355223666	0.46981426496118567	0.4856234514374408	0.23097830700173239	0.4302677654093169	0.2465204712987606	0.21115401063628558	0.3625191660393122	0.35354808181317904	0.38716147759480973	0.4483603398527223	0.5646622974077586	0.44002200059341806	0.3772280056311164	0.762385061984498	0.3735145304919911	0.20937718862085217	0.7991279738120151	0.33669344510690935	0.06951875709457624	0.7526701812423395	0.3270271551652524	0.02422424693561623	0.7655604666393078	0.3501106205930335	0.04411202398022756	0.8050986349411684	0.07267571895727898	0.4640267756442224	0.5674713359603033	0.025624961634502282	0.4900095212484675	0.8116825271862795	0.09208566892479866	0.25336688779747524	0.764916156974922	0.1305296560860302	0.16034782448841448	0.686408192026071	0.11424286894820201	0.1407597194450383	0.7003622186691666	0.12793871230436218	0.16548996073000488	0.7588713055797397
253	4.288135593220339	0.3247719843789993	0.4695458530490679	1.074417055054107	0.32349262367043824	0.48889990081128326	1.4948797393639246	0.3237382254209785	0.4808617560594418	1.9051896218723032	0.2984887152850809	0.317145099196635	1.9076099383044505	0.37359592119273705	0.3188535236454055	1.8996118735518899	0.3048926492775354	0.5670404412152453	2.0076575770317304	0.11708197783730999	0.4923467654635948	1.0891462008273234	0.12552492114385785	0.510447783348116	1.509412270694957	0.14196437367869827	0.510929139848851	1.9467025972218241	0.14937829098367927	0.3158651933319863	1.911855253747349	0.10258468308811364	0.3646095284217274	1.9303433999237605	0.1594947165008479	0.5380896827825177	1.9861332497481383	0.23662316323234653	0.469738289067793	0.48561069303297427	0.2339030173848099	0.44025171457047807	0.24708967629347792	0.2111463999052244	0.36256713276267577	0.35356436037442696	0.38344304475367	0.4611846629472701	0.5670570725056504	0.43967153767986883	0.37735488156923264	0.7660300633727065	0.36841955588334097	0.18608110311173257	0.817929409989143	0.3144931074287655	0.05945280315026338	0.811606574550771	0.31936932788135813	0.019081001257185363	0.8087716133159663	0.33455779856111567	0.06619469263506024	0.8508404905031411	0.06983204848962517	0.4536325235907175	0.5616913234888956	0.02968948859249792	0.49602645129103745	0.8065686680255519	0.088844305007241	0.25075592012149867	0.7746137369584334	0.1309003403871387	0.15937346819521392	0.7224483145724904	0.11568374207576042	0.13910303517453815	0.7311679869313776	0.13344752691862702	0.1659726662584014	0.7759842767825514
254	4.305084745762712	0.3251231307555403	0.4431332979337123	1.0615564970696285	0.3269353663394251	0.5015549409369094	1.496745919000732	0.32637878851338253	0.49197428809568505	1.9072835152184318	0.30158996667822696	0.3273781579168981	1.9145162774491638	0.37704716796649246	0.3292373470644284	1.9064449997356379	0.30016655189416125	0.5833995437751288	2.0184634866410653	0.11939383285513712	0.5028127355219011	1.0828287221269823	0.12475140548773037	0.5091977315019692	1.5041486220384381	0.141963976307955	0.5109336932060073	1.9466537870164082	0.14934617468449682	0.3159264898501695	1.911829416299266	0.09743875628198578	0.37819575590996335	1.9398530688620077	0.15947024349757546	0.5380092615745072	1.9860279159289325	0.23661903462047018	0.4697112382810621	0.4857546000354627	0.23390489448302668	0.4403504173312491	0.24697156349021843	0.21119479819579878	0.3626237074046872	0.3535559434862848	0.3836125955148641	0.46008908510879093	0.570255430094205	0.4400751799150637	0.3766243259410413	0.7680026225781443	0.36293909308827493	0.19664083695352325	0.8587721742288081	0.3011048002206137	0.0867156406049327	0.891451804336373	0.29892190706644034	0.08110658939099731	0.8969972178865739	0.3226063558485427	0.11188298513624227	0.9098666018174227	0.07243631670782512	0.4643185626302256	0.5632285132807019	0.021519533480407294	0.5032153706465121	0.7928484820665395	0.09455280490572088	0.2683842858537693	0.7901255509324796	0.13453904663909513	0.1584959667844424	0.7400859422430061	0.13061465307566403	0.13158159364036398	0.7525062606208848	0.13353281375979761	0.16646581600036373	0.8135388730813292
255	4.322033898305085	0.33217143636979063	0.44134955826503386	1.056246091714586	0.3193436029627865	0.4855856569503428	1.4934515710678833	0.3264553043896689	0.4921201395073269	1.9072678954986575	0.3026719779342167	0.3027774713181973	1.897574293257908	0.3735786855222992	0.3186964433561138	1.8994719093043955	0.3008315229091587	0.5820090472521589	2.0223937546138835	0.12821816913733608	0.49309319639734855	1.0746683001677197	0.12428795053323886	0.5104420329509659	1.5005041208914673	0.14084096541176863	0.5113799674067414	1.9511745986090927	0.1539327418559156	0.30246773567999646	1.9025622530806352	0.10050712939155025	0.35315829724811637	1.922922150625015	0.1596403998127702	0.5391020663512148	1.9865034142806237	0.23663555291636884	0.4697445575962458	0.48589958241060816	0.23392901641913802	0.44041618708022884	0.2472686241628699	0.2112303998423009	0.3626704651726985	0.35351959516445275	0.3798178646446715	0.45847940789035524	0.570331427470206	0.4418046512008444	0.37322942647541396	0.7890080170867922	0.34368358361307405	0.1762440912566572	0.8852839544787581	0.27379167786194797	0.11350746009712932	0.9261372282807327	0.2921227517356941	0.08777537853633724	0.9241448394929178	0.3114323398653358	0.11930506855645875	0.9471096086834808	0.0725826036440306	0.46472694775953255	0.5632505608338876	0.025591106241597755	0.4631271559352189	0.7827356104170745	0.09956185351446814	0.288405774391256	0.8003936707375038	0.14390355671419125	0.16543653547687992	0.7751350923326483	0.14616556010372553	0.13252456611641433	0.7794933684629426	0.14024635070898409	0.16208083985991253	0.833517301515695
256	4.338983050847458	0.33684618219963	0.4441197592004023	1.0565596756793023	0.31896284003907865	0.4871134054902142	1.4898987152587146	0.3260983491767736	0.49421030413839834	1.9034603046498022	0.3036714542826394	0.3027012451191628	1.8928028934808412	0.3735524142316837	0.3187962304797239	1.8994849703188386	0.30343139473470276	0.5958486481154232	2.0207482951158253	0.12808322276945555	0.4944783800173648	1.0759954032182615	0.12411493269264612	0.510332149327324	1.5005059170497261	0.14200168756091636	0.5109604965631497	1.9466183886878285	0.15407651594742297	0.30254420730492754	1.9026768331879176	0.10054353892559299	0.35307706034422487	1.9228667338136438	0.1624188338513311	0.5500627094250814	1.9935902097609868	0.23660352109132357	0.4699256486588504	0.4859650639343518	0.23400563064803398	0.4405068265453845	0.2475918442531824	0.21502669825512258	0.36480533161987083	0.353615375380185	0.3797704844987957	0.4583671093624974	0.5705785929986756	0.43781248638055004	0.370916637714003	0.7978826533024194	0.3302277194599779	0.1656993570177656	0.9119357292192815	0.23877910060775948	0.13599682331684992	0.9804469543692995	0.2556139142053484	0.11402207534194594	0.9955576362032432	0.3018922072060796	0.10932722908065215	0.9983796553515337	0.0724670517635648	0.46474936099965614	0.5630472938247967	0.031079273562288165	0.44794979018921055	0.7870326751839966	0.11172081765328752	0.2800396577436326	0.8111033904856463	0.1669942645826235	0.18105671545664123	0.806650665553205	0.16336455932272737	0.11421851807882095	0.8046842862432423	0.14517093888533192	0.16221736223679917	0.8513447088615071
